<svg width="95" height="18" viewBox="0 0 95 18" fill="none" xmlns="http://www.w3.org/2000/svg">
<path fill-rule="evenodd" clip-rule="evenodd" d="M18.9221 14.9444L24.8442 18V1.74604C24.8442 0.781731 24.0867 0 23.1522 0H14.6919C13.7574 0 12.9999 0.781731 12.9999 1.74604V18L18.9221 14.9444ZM23.1522 15.1748L18.9221 12.9923L14.6919 15.1748V1.74604H23.1522V15.1748Z" fill="#333C4D"/>
<path fill-rule="evenodd" clip-rule="evenodd" d="M29.8 6.29261C29.5005 5.76955 29.1096 5.09922 28.8575 4.73034C27.6796 3.00655 26.3431 2 24.7 2C20.8662 2 19 5.52978 19 10H20.2C20.2 6.31775 21.6369 3.6 24.7 3.6C25.9547 3.6 26.9993 4.38677 27.9705 5.80793C28.2242 6.17917 28.7077 7.02595 29.0389 7.6H25.6V9.2H31V2H29.8V6.29261Z" fill="#0AA085"/>
<path d="M31.9727 5.36816H35.8545C36.4404 5.36816 36.9482 5.43001 37.3779 5.55371C37.8076 5.67415 38.1641 5.84993 38.4473 6.08105C38.7305 6.31217 38.9404 6.59375 39.0771 6.92578C39.2171 7.25781 39.2871 7.63379 39.2871 8.05371C39.2871 8.33691 39.2529 8.6071 39.1846 8.86426C39.1162 9.11816 39.0104 9.35254 38.8672 9.56738C38.7272 9.78223 38.5498 9.97428 38.335 10.1436C38.1201 10.3096 37.8678 10.4479 37.5781 10.5586L39.2383 13H37.3438L35.9082 10.832H35.8643L33.5205 10.8271V13H31.9727V5.36816ZM35.8936 9.48926C36.1865 9.48926 36.4421 9.45508 36.6602 9.38672C36.8815 9.31836 37.0654 9.22233 37.2119 9.09863C37.3617 8.97493 37.4723 8.8252 37.5439 8.64941C37.6188 8.47038 37.6562 8.27181 37.6562 8.05371C37.6562 7.62728 37.5098 7.2985 37.2168 7.06738C36.9238 6.83301 36.4827 6.71582 35.8936 6.71582H33.5205V9.48926H35.8936ZM41.123 5.36816H47.6221V6.72559H42.6709V8.24902H47.0557V9.52344H42.6709V11.6475H47.7246V13H41.123V5.36816ZM48.9795 9.1377C48.9795 8.59408 49.082 8.08789 49.2871 7.61914C49.4922 7.14714 49.7884 6.73861 50.1758 6.39355C50.5664 6.04525 51.0417 5.77181 51.6016 5.57324C52.1647 5.37467 52.8011 5.27539 53.5107 5.27539C54.1325 5.27539 54.7021 5.33887 55.2197 5.46582C55.7406 5.58952 56.224 5.77995 56.6699 6.03711L55.957 7.20898C55.8236 7.12109 55.6689 7.04297 55.4932 6.97461C55.3206 6.90625 55.1351 6.84928 54.9365 6.80371C54.7412 6.75488 54.5378 6.71745 54.3262 6.69141C54.1178 6.66536 53.9111 6.65234 53.7061 6.65234C53.2113 6.65234 52.7702 6.71419 52.3828 6.83789C51.9954 6.95833 51.6683 7.12923 51.4014 7.35059C51.1377 7.56868 50.9359 7.83073 50.7959 8.13672C50.6592 8.43945 50.5908 8.77311 50.5908 9.1377C50.5908 9.5153 50.6624 9.86198 50.8057 10.1777C50.9489 10.4935 51.1556 10.7669 51.4258 10.998C51.6992 11.2259 52.0312 11.4049 52.4219 11.5352C52.8158 11.6621 53.2601 11.7256 53.7549 11.7256C53.9795 11.7256 54.2025 11.7093 54.4238 11.6768C54.6452 11.6442 54.8584 11.6003 55.0635 11.5449C55.2718 11.4863 55.472 11.418 55.6641 11.3398C55.8561 11.2585 56.0352 11.1706 56.2012 11.0762L56.9141 12.248C56.4974 12.515 56.0156 12.7249 55.4688 12.8779C54.9219 13.0277 54.3408 13.1025 53.7256 13.1025C52.9411 13.1025 52.2526 13.0016 51.6602 12.7998C51.0677 12.5947 50.5729 12.3148 50.1758 11.96C49.7786 11.6019 49.4792 11.182 49.2773 10.7002C49.0788 10.2152 48.9795 9.69434 48.9795 9.1377ZM58.1738 9.16211C58.1738 8.58594 58.2796 8.05859 58.4912 7.58008C58.7028 7.10156 58.999 6.69141 59.3799 6.34961C59.764 6.00456 60.223 5.73763 60.7568 5.54883C61.2939 5.36003 61.888 5.26562 62.5391 5.26562C63.1868 5.26562 63.7793 5.36003 64.3164 5.54883C64.8535 5.73763 65.3125 6.00456 65.6934 6.34961C66.0775 6.69141 66.3753 7.10156 66.5869 7.58008C66.7985 8.05859 66.9043 8.58594 66.9043 9.16211C66.9043 9.74154 66.7985 10.2738 66.5869 10.7588C66.3753 11.2406 66.0775 11.6556 65.6934 12.0039C65.3125 12.3522 64.8535 12.624 64.3164 12.8193C63.7793 13.0114 63.1868 13.1074 62.5391 13.1074C61.888 13.1074 61.2939 13.0114 60.7568 12.8193C60.223 12.624 59.764 12.3522 59.3799 12.0039C58.999 11.6556 58.7028 11.2406 58.4912 10.7588C58.2796 10.2738 58.1738 9.74154 58.1738 9.16211ZM59.7217 9.16211C59.7217 9.55599 59.7917 9.91081 59.9316 10.2266C60.0749 10.5423 60.2718 10.8125 60.5225 11.0371C60.7764 11.2585 61.0742 11.4294 61.416 11.5498C61.7611 11.6702 62.1354 11.7305 62.5391 11.7305C62.9427 11.7305 63.3154 11.6702 63.6572 11.5498C64.0023 11.4294 64.3001 11.2585 64.5508 11.0371C64.8014 10.8125 64.9984 10.5423 65.1416 10.2266C65.2848 9.91081 65.3564 9.55599 65.3564 9.16211C65.3564 8.76823 65.2848 8.41504 65.1416 8.10254C64.9984 7.79004 64.8014 7.52637 64.5508 7.31152C64.3001 7.09342 64.0023 6.92741 63.6572 6.81348C63.3154 6.69954 62.9427 6.64258 62.5391 6.64258C62.1354 6.64258 61.7611 6.69954 61.416 6.81348C61.0742 6.92741 60.7764 7.09342 60.5225 7.31152C60.2718 7.52637 60.0749 7.79004 59.9316 8.10254C59.7917 8.41504 59.7217 8.76823 59.7217 9.16211ZM68.6279 5.36816H70.1758L72.9492 8.15137L75.7227 5.36816H77.2705V13H75.7227V7.51172L72.9492 10.1826L70.1758 7.51172V13H68.6279V5.36816ZM79.4434 5.36816H85.9424V6.72559H80.9912V8.24902H85.376V9.52344H80.9912V11.6475H86.0449V13H79.4434V5.36816ZM87.7637 5.36816H94.2627V6.72559H89.3115V8.24902H93.6963V9.52344H89.3115V11.6475H94.3652V13H87.7637V5.36816Z" fill="#333C4D"/>
</svg>
